<svg width="40" height="48" viewBox="0 0 40 48" fill="none" xmlns="http://www.w3.org/2000/svg">
<path d="M19.4097 47.9313C11.6084 47.9313 4.86803 47.0576 0.561699 45.7469L1.62267 30.3939C5.67936 32.6407 9.92327 34.0138 14.6041 34.0138C16.3516 34.0138 18.2239 33.7641 18.2239 32.5783C18.2239 31.1429 16.414 29.9571 12.4821 28.272L8.8623 26.7117C5.24249 25.1515 0 22.343 0 14.1672C0 3.99427 8.17579 0 20.1586 0C27.0238 0 33.4521 0.936158 38.3825 2.12196L36.8222 15.5402C33.5145 14.292 28.3968 13.1686 24.5274 13.1686C21.8437 13.1686 20.6579 13.6679 20.6579 14.4792C20.6579 15.7899 22.7799 16.414 26.2748 17.9742L29.8947 19.5969C33.5145 21.2196 39.6307 24.0281 39.6307 32.828C39.6307 42.6888 32.9528 47.9313 19.4097 47.9313Z" fill="#22888D"/>
</svg>
