<svg width="21" height="21" viewBox="0 0 21 21" fill="none" xmlns="http://www.w3.org/2000/svg">
<rect width="21" height="21" fill="url(#paint0_radial_319_686)"/>
<path d="M3.70508 16L4.86719 3.96875H8.94824L10.0898 16H7.81348L7.64258 14.0586H6.19336L6.04297 16H3.70508ZM6.36426 12.1377H7.45801L6.93164 6.01953H6.82227L6.36426 12.1377Z" fill="#2F2F2F"/>
<path d="M11.0332 16V3.96875H14.7246C15.3398 3.96875 15.8047 4.11003 16.1191 4.39258C16.4336 4.67057 16.6432 5.0625 16.748 5.56836C16.8574 6.06966 16.9121 6.65983 16.9121 7.33887C16.9121 7.99512 16.8278 8.51921 16.6592 8.91113C16.4951 9.30306 16.1829 9.57422 15.7227 9.72461C16.1009 9.80208 16.3652 9.99121 16.5156 10.292C16.6706 10.5882 16.748 10.9733 16.748 11.4473V16H14.376V11.29C14.376 10.9391 14.3031 10.7227 14.1572 10.6406C14.016 10.554 13.7858 10.5107 13.4668 10.5107V16H11.0332ZM13.4805 8.42578H14.0615C14.3942 8.42578 14.5605 8.06348 14.5605 7.33887C14.5605 6.86947 14.5241 6.56185 14.4512 6.41602C14.3783 6.27018 14.2415 6.19727 14.041 6.19727H13.4805V8.42578Z" fill="#2F2F2F"/>
<defs>
<radialGradient id="paint0_radial_319_686" cx="0" cy="0" r="1" gradientUnits="userSpaceOnUse" gradientTransform="translate(10.5 10.5) rotate(90) scale(12.5)">
<stop offset="0.525681" stop-color="white"/>
<stop offset="1" stop-color="white" stop-opacity="0"/>
</radialGradient>
</defs>
</svg>
