<svg width="143" height="47" viewBox="0 0 143 47" fill="none" xmlns="http://www.w3.org/2000/svg">
<path d="M85.6641 1.72266L86.5547 3.44141L86.2881 11.6338H69.2568V19.0107H85.4209V27.2363H69.2568V34.4883H86.6123L86.2881 44.4609H51.6074V1.72266H85.6641ZM25.0889 1.72266C31.6296 1.72266 36.3652 3.21809 39.4434 5.83691C42.4745 8.41596 44.1494 12.2995 44.1494 17.6621V17.7871C44.1494 22.7369 42.498 26.5405 39.4326 29.2227L38.4824 30.0537L38.9893 31.21L44.7969 44.4609H26.4502L23.874 35.4736L23.5166 34.2256H19.3721V44.4609H1.72266V1.72266H25.0889ZM19.3721 26.749H22.0312C22.805 26.749 23.5987 26.6322 24.3311 26.2686C25.0918 25.8909 25.6664 25.3067 26.0723 24.5762C26.8156 23.2382 26.999 21.38 26.999 19.2227V18.7236C26.999 16.5 26.8361 14.6108 26.0977 13.2725C25.6874 12.5291 25.1012 11.9496 24.3271 11.584C23.5918 11.2367 22.7963 11.1338 22.0312 11.1338H19.3721V26.749ZM105.783 33.0322L105.59 32.6592L90.0283 2.6543L90.0586 1.72266H108.845L110.486 6.25293H110.487C111.586 9.36688 112.065 10.9787 112.86 14.7705L113.147 16.1396H116.338L116.657 14.8223C117.588 10.9756 118.005 9.36742 119.155 6.28027L119.161 6.2666L120.809 1.72266H139.848L123.63 32.7158L123.433 33.0908V44.4609H105.783V33.0322Z" stroke="#22888D" stroke-width="3.44508"/>
</svg>
